<svg version="1.2" baseProfile="tiny-ps" xmlns="http://www.w3.org/2000/svg" viewBox="0 0 180 180" width="180" height="180">
	<title>apple-touch-icon</title>
	<style>
		tspan { white-space:pre }
		.shp0 { fill: #fda925 } 
	</style>
	<path class="shp0" d="M90 172C44.65 172 8 136.02 8 91.5C8 46.98 44.65 11 90 11C135.35 11 172 46.98 172 91.5C172 136.02 135.35 172 90 172Z" />
	<path fill="#ffffff" aria-label="AppLab"  d="M48.29 98L52.73 98L45.2 77.03L40.31 77.03L32.78 98L37.19 98L38.57 94.01L46.91 94.01ZM45.77 90.65L39.71 90.65L42.74 81.89ZM59.75 83.78L59.75 81.38L55.55 81.38L55.55 105.92L59.75 105.92L59.75 95.63C60.77 96.98 62.63 98.27 65.24 98.27C69.5 98.27 72.83 94.82 72.83 89.63C72.83 84.44 69.5 81.11 65.24 81.11C62.66 81.11 60.74 82.37 59.75 83.78ZM68.54 89.63C68.54 92.78 66.41 94.58 64.13 94.58C61.88 94.58 59.75 92.84 59.75 89.69C59.75 86.54 61.88 84.8 64.13 84.8C66.41 84.8 68.54 86.48 68.54 89.63ZM80.09 83.78L80.09 81.38L75.89 81.38L75.89 105.92L80.09 105.92L80.09 95.63C81.11 96.98 82.97 98.27 85.58 98.27C89.84 98.27 93.17 94.82 93.17 89.63C93.17 84.44 89.84 81.11 85.58 81.11C83 81.11 81.08 82.37 80.09 83.78ZM88.88 89.63C88.88 92.78 86.75 94.58 84.47 94.58C82.22 94.58 80.09 92.84 80.09 89.69C80.09 86.54 82.22 84.8 84.47 84.8C86.75 84.8 88.88 86.48 88.88 89.63Z" />
	<path fill="#242f51" aria-label="AppLab"  d="M96.23 77.06L96.23 98L107.33 98L107.33 94.67L100.43 94.67L100.43 77.06ZM108.92 89.63C108.92 94.82 112.28 98.27 116.48 98.27C119.12 98.27 121.01 97.01 122 95.57L122 98L126.23 98L126.23 81.38L122 81.38L122 83.75C121.01 82.37 119.18 81.11 116.51 81.11C112.28 81.11 108.92 84.44 108.92 89.63ZM122 89.69C122 92.84 119.9 94.58 117.59 94.58C115.34 94.58 113.21 92.78 113.21 89.63C113.21 86.48 115.34 84.8 117.59 84.8C119.9 84.8 122 86.54 122 89.69ZM134.54 83.81L134.54 75.8L130.34 75.8L130.34 98L134.54 98L134.54 95.63C135.56 97.07 137.42 98.27 140.03 98.27C144.29 98.27 147.62 94.82 147.62 89.63C147.62 84.44 144.29 81.11 140.03 81.11C137.51 81.11 135.56 82.28 134.54 83.81ZM143.33 89.63C143.33 92.78 141.2 94.58 138.92 94.58C136.67 94.58 134.54 92.84 134.54 89.69C134.54 86.54 136.67 84.8 138.92 84.8C141.2 84.8 143.33 86.48 143.33 89.63Z" />
</svg>